STARTFONT 2.1
FONT -Fondu-ProFont-Medium-R-Normal--12-120-75-75-P-69-MacRoman-1
SIZE 12 75 75
FONTBOUNDINGBOX 7 15 0 -3
COMMENT Created by Fondu from a mac NFNT/FONT resource
STARTPROPERTIES 17
FOUNDRY "Fondu"
FAMILY_NAME "ProFont"
WEIGHT_NAME "Medium"
SLANT "R"
SETWIDTH_NAME "Normal"
ADD_STYLE_NAME ""
PIXEL_SIZE 12
POINT_SIZE 120
RESOLUTION_X 75
RESOLUTION_Y 75
SPACING "P"
AVERAGE_WIDTH 69
CHARSET_REGISTRY "MacRoman"
CHARSET_ENCODING "1"
FONT_ASCENT 12
FONT_DESCENT 3
FACE_NAME "ProFont 12"
ENDPROPERTIES
CHARS 228
STARTCHAR char0011
ENCODING 17
SWIDTH 667 0
DWIDTH 7 0
BBX 7 7 0 1
BITMAP
28
7C
D6
7C
D6
7C
28
ENDCHAR
STARTCHAR char0012
ENCODING 18
SWIDTH 667 0
DWIDTH 7 0
BBX 7 11 0 0
BITMAP
02
02
04
04
08
08
10
90
A0
60
40
ENDCHAR
STARTCHAR char0013
ENCODING 19
SWIDTH 667 0
DWIDTH 7 0
BBX 7 7 0 1
BITMAP
10
38
7C
FE
7C
38
10
ENDCHAR
STARTCHAR char0014
ENCODING 20
SWIDTH 667 0
DWIDTH 7 0
BBX 7 11 0 0
BITMAP
08
10
64
7E
FE
FC
FC
FE
7E
7E
34
ENDCHAR
STARTCHAR space
ENCODING 32
SWIDTH 667 0
DWIDTH 7 0
BBX 0 0 0 -3
BITMAP
ENDCHAR
STARTCHAR exclam
ENCODING 33
SWIDTH 667 0
DWIDTH 7 0
BBX 1 9 3 0
BITMAP
80
80
80
80
80
80
80
00
80
ENDCHAR
STARTCHAR quotedbl
ENCODING 34
SWIDTH 667 0
DWIDTH 7 0
BBX 4 4 1 7
BITMAP
90
90
90
90
ENDCHAR
STARTCHAR numbersign
ENCODING 35
SWIDTH 667 0
DWIDTH 7 0
BBX 6 6 0 3
BITMAP
48
FC
48
48
FC
48
ENDCHAR
STARTCHAR dollar
ENCODING 36
SWIDTH 667 0
DWIDTH 7 0
BBX 5 13 0 -2
BITMAP
20
20
70
A8
A0
A0
70
28
28
A8
70
20
20
ENDCHAR
STARTCHAR percent
ENCODING 37
SWIDTH 667 0
DWIDTH 7 0
BBX 7 9 0 0
BITMAP
7E
A2
A4
A8
54
2A
4A
8A
84
ENDCHAR
STARTCHAR ampersand
ENCODING 38
SWIDTH 667 0
DWIDTH 7 0
BBX 6 9 0 0
BITMAP
70
88
90
A0
40
A0
94
88
74
ENDCHAR
STARTCHAR quotesingle
ENCODING 39
SWIDTH 667 0
DWIDTH 7 0
BBX 1 4 3 7
BITMAP
80
80
80
80
ENDCHAR
STARTCHAR parenleft
ENCODING 40
SWIDTH 667 0
DWIDTH 7 0
BBX 4 13 1 -2
BITMAP
10
20
40
80
80
80
80
80
80
80
40
20
10
ENDCHAR
STARTCHAR parenright
ENCODING 41
SWIDTH 667 0
DWIDTH 7 0
BBX 4 13 1 -2
BITMAP
80
40
20
10
10
10
10
10
10
10
20
40
80
ENDCHAR
STARTCHAR asterisk
ENCODING 42
SWIDTH 667 0
DWIDTH 7 0
BBX 5 6 0 3
BITMAP
20
A8
70
70
A8
20
ENDCHAR
STARTCHAR plus
ENCODING 43
SWIDTH 667 0
DWIDTH 7 0
BBX 5 5 0 1
BITMAP
20
20
F8
20
20
ENDCHAR
STARTCHAR comma
ENCODING 44
SWIDTH 667 0
DWIDTH 7 0
BBX 3 5 1 -3
BITMAP
60
60
20
40
80
ENDCHAR
STARTCHAR hyphen
ENCODING 45
SWIDTH 667 0
DWIDTH 7 0
BBX 5 1 0 3
BITMAP
F8
ENDCHAR
STARTCHAR period
ENCODING 46
SWIDTH 667 0
DWIDTH 7 0
BBX 2 2 2 0
BITMAP
C0
C0
ENDCHAR
STARTCHAR slash
ENCODING 47
SWIDTH 667 0
DWIDTH 7 0
BBX 6 12 0 -2
BITMAP
04
04
08
08
10
10
20
20
40
40
80
80
ENDCHAR
STARTCHAR zero
ENCODING 48
SWIDTH 667 0
DWIDTH 7 0
BBX 6 9 0 0
BITMAP
78
84
8C
94
A4
C4
84
84
78
ENDCHAR
STARTCHAR one
ENCODING 49
SWIDTH 667 0
DWIDTH 7 0
BBX 7 9 0 0
BITMAP
10
70
10
10
10
10
10
10
FE
ENDCHAR
STARTCHAR two
ENCODING 50
SWIDTH 667 0
DWIDTH 7 0
BBX 6 9 0 0
BITMAP
78
84
04
04
08
10
20
40
FC
ENDCHAR
STARTCHAR three
ENCODING 51
SWIDTH 667 0
DWIDTH 7 0
BBX 6 9 0 0
BITMAP
78
84
04
04
38
04
04
84
78
ENDCHAR
STARTCHAR four
ENCODING 52
SWIDTH 667 0
DWIDTH 7 0
BBX 6 9 0 0
BITMAP
08
18
28
48
88
FC
08
08
1C
ENDCHAR
STARTCHAR five
ENCODING 53
SWIDTH 667 0
DWIDTH 7 0
BBX 6 9 0 0
BITMAP
FC
80
80
F8
04
04
04
84
78
ENDCHAR
STARTCHAR six
ENCODING 54
SWIDTH 667 0
DWIDTH 7 0
BBX 6 9 0 0
BITMAP
78
80
80
F8
84
84
84
84
78
ENDCHAR
STARTCHAR seven
ENCODING 55
SWIDTH 667 0
DWIDTH 7 0
BBX 6 9 0 0
BITMAP
FC
04
04
08
10
20
20
20
20
ENDCHAR
STARTCHAR eight
ENCODING 56
SWIDTH 667 0
DWIDTH 7 0
BBX 6 9 0 0
BITMAP
78
84
84
84
78
84
84
84
78
ENDCHAR
STARTCHAR nine
ENCODING 57
SWIDTH 667 0
DWIDTH 7 0
BBX 6 9 0 0
BITMAP
78
84
84
84
84
7C
04
04
78
ENDCHAR
STARTCHAR colon
ENCODING 58
SWIDTH 667 0
DWIDTH 7 0
BBX 2 7 2 0
BITMAP
C0
C0
00
00
00
C0
C0
ENDCHAR
STARTCHAR semicolon
ENCODING 59
SWIDTH 667 0
DWIDTH 7 0
BBX 3 10 1 -3
BITMAP
60
60
00
00
00
60
60
20
40
80
ENDCHAR
STARTCHAR less
ENCODING 60
SWIDTH 667 0
DWIDTH 7 0
BBX 5 9 1 0
BITMAP
08
10
20
40
80
40
20
10
08
ENDCHAR
STARTCHAR equal
ENCODING 61
SWIDTH 667 0
DWIDTH 7 0
BBX 6 4 0 3
BITMAP
FC
00
00
FC
ENDCHAR
STARTCHAR greater
ENCODING 62
SWIDTH 667 0
DWIDTH 7 0
BBX 5 9 1 0
BITMAP
80
40
20
10
08
10
20
40
80
ENDCHAR
STARTCHAR question
ENCODING 63
SWIDTH 667 0
DWIDTH 7 0
BBX 6 9 0 0
BITMAP
78
84
04
04
08
10
20
00
20
ENDCHAR
STARTCHAR at
ENCODING 64
SWIDTH 667 0
DWIDTH 7 0
BBX 6 9 0 0
BITMAP
78
84
9C
A4
A4
98
80
80
78
ENDCHAR
STARTCHAR A
ENCODING 65
SWIDTH 667 0
DWIDTH 7 0
BBX 6 9 0 0
BITMAP
30
30
48
48
84
FC
84
84
84
ENDCHAR
STARTCHAR B
ENCODING 66
SWIDTH 667 0
DWIDTH 7 0
BBX 6 9 0 0
BITMAP
F8
84
84
84
F8
84
84
84
F8
ENDCHAR
STARTCHAR C
ENCODING 67
SWIDTH 667 0
DWIDTH 7 0
BBX 6 9 0 0
BITMAP
78
84
80
80
80
80
80
84
78
ENDCHAR
STARTCHAR D
ENCODING 68
SWIDTH 667 0
DWIDTH 7 0
BBX 6 9 0 0
BITMAP
F8
84
84
84
84
84
84
84
F8
ENDCHAR
STARTCHAR E
ENCODING 69
SWIDTH 667 0
DWIDTH 7 0
BBX 6 9 0 0
BITMAP
FC
80
80
80
F8
80
80
80
FC
ENDCHAR
STARTCHAR F
ENCODING 70
SWIDTH 667 0
DWIDTH 7 0
BBX 6 9 0 0
BITMAP
FC
80
80
80
F8
80
80
80
80
ENDCHAR
STARTCHAR G
ENCODING 71
SWIDTH 667 0
DWIDTH 7 0
BBX 6 9 0 0
BITMAP
78
84
80
80
8C
84
84
84
78
ENDCHAR
STARTCHAR H
ENCODING 72
SWIDTH 667 0
DWIDTH 7 0
BBX 6 9 0 0
BITMAP
84
84
84
84
FC
84
84
84
84
ENDCHAR
STARTCHAR I
ENCODING 73
SWIDTH 667 0
DWIDTH 7 0
BBX 7 9 0 0
BITMAP
FE
10
10
10
10
10
10
10
FE
ENDCHAR
STARTCHAR J
ENCODING 74
SWIDTH 667 0
DWIDTH 7 0
BBX 6 9 0 0
BITMAP
04
04
04
04
04
84
84
84
78
ENDCHAR
STARTCHAR K
ENCODING 75
SWIDTH 667 0
DWIDTH 7 0
BBX 6 9 0 0
BITMAP
84
88
90
A0
C0
A0
90
88
84
ENDCHAR
STARTCHAR L
ENCODING 76
SWIDTH 667 0
DWIDTH 7 0
BBX 6 9 0 0
BITMAP
80
80
80
80
80
80
80
80
FC
ENDCHAR
STARTCHAR M
ENCODING 77
SWIDTH 667 0
DWIDTH 7 0
BBX 7 9 0 0
BITMAP
82
C6
AA
92
92
82
82
82
82
ENDCHAR
STARTCHAR N
ENCODING 78
SWIDTH 667 0
DWIDTH 7 0
BBX 6 9 0 0
BITMAP
84
C4
A4
94
8C
84
84
84
84
ENDCHAR
STARTCHAR O
ENCODING 79
SWIDTH 667 0
DWIDTH 7 0
BBX 6 9 0 0
BITMAP
78
84
84
84
84
84
84
84
78
ENDCHAR
STARTCHAR P
ENCODING 80
SWIDTH 667 0
DWIDTH 7 0
BBX 6 9 0 0
BITMAP
F8
84
84
84
F8
80
80
80
80
ENDCHAR
STARTCHAR Q
ENCODING 81
SWIDTH 667 0
DWIDTH 7 0
BBX 6 10 0 -1
BITMAP
78
84
84
84
84
84
A4
94
78
04
ENDCHAR
STARTCHAR R
ENCODING 82
SWIDTH 667 0
DWIDTH 7 0
BBX 6 9 0 0
BITMAP
F8
84
84
84
F8
84
84
84
84
ENDCHAR
STARTCHAR S
ENCODING 83
SWIDTH 667 0
DWIDTH 7 0
BBX 6 9 0 0
BITMAP
78
84
80
80
78
04
04
84
78
ENDCHAR
STARTCHAR T
ENCODING 84
SWIDTH 667 0
DWIDTH 7 0
BBX 7 9 0 0
BITMAP
FE
10
10
10
10
10
10
10
10
ENDCHAR
STARTCHAR U
ENCODING 85
SWIDTH 667 0
DWIDTH 7 0
BBX 6 9 0 0
BITMAP
84
84
84
84
84
84
84
84
78
ENDCHAR
STARTCHAR V
ENCODING 86
SWIDTH 667 0
DWIDTH 7 0
BBX 7 9 0 0
BITMAP
82
82
82
44
44
28
28
10
10
ENDCHAR
STARTCHAR W
ENCODING 87
SWIDTH 667 0
DWIDTH 7 0
BBX 7 9 0 0
BITMAP
82
82
82
82
92
92
AA
C6
82
ENDCHAR
STARTCHAR X
ENCODING 88
SWIDTH 667 0
DWIDTH 7 0
BBX 6 9 0 0
BITMAP
84
84
84
48
30
30
48
84
84
ENDCHAR
STARTCHAR Y
ENCODING 89
SWIDTH 667 0
DWIDTH 7 0
BBX 7 9 0 0
BITMAP
82
82
82
44
28
10
10
10
10
ENDCHAR
STARTCHAR Z
ENCODING 90
SWIDTH 667 0
DWIDTH 7 0
BBX 6 9 0 0
BITMAP
FC
04
08
10
20
40
80
80
FC
ENDCHAR
STARTCHAR bracketleft
ENCODING 91
SWIDTH 667 0
DWIDTH 7 0
BBX 3 12 2 -1
BITMAP
E0
80
80
80
80
80
80
80
80
80
80
E0
ENDCHAR
STARTCHAR backslash
ENCODING 92
SWIDTH 667 0
DWIDTH 7 0
BBX 6 12 1 -2
BITMAP
80
80
40
40
20
20
10
10
08
08
04
04
ENDCHAR
STARTCHAR bracketright
ENCODING 93
SWIDTH 667 0
DWIDTH 7 0
BBX 3 12 1 -1
BITMAP
E0
20
20
20
20
20
20
20
20
20
20
E0
ENDCHAR
STARTCHAR asciicircum
ENCODING 94
SWIDTH 667 0
DWIDTH 7 0
BBX 5 3 1 6
BITMAP
20
50
88
ENDCHAR
STARTCHAR underscore
ENCODING 95
SWIDTH 667 0
DWIDTH 7 0
BBX 7 1 0 -2
BITMAP
FE
ENDCHAR
STARTCHAR grave
ENCODING 96
SWIDTH 667 0
DWIDTH 7 0
BBX 4 4 1 7
BITMAP
80
40
20
10
ENDCHAR
STARTCHAR a
ENCODING 97
SWIDTH 667 0
DWIDTH 7 0
BBX 6 6 0 0
BITMAP
7C
84
84
8C
94
64
ENDCHAR
STARTCHAR b
ENCODING 98
SWIDTH 667 0
DWIDTH 7 0
BBX 6 9 0 0
BITMAP
80
80
80
F8
84
84
84
84
F8
ENDCHAR
STARTCHAR c
ENCODING 99
SWIDTH 667 0
DWIDTH 7 0
BBX 6 6 0 0
BITMAP
78
84
80
80
80
7C
ENDCHAR
STARTCHAR d
ENCODING 100
SWIDTH 667 0
DWIDTH 7 0
BBX 6 9 0 0
BITMAP
04
04
04
7C
84
84
84
84
7C
ENDCHAR
STARTCHAR e
ENCODING 101
SWIDTH 667 0
DWIDTH 7 0
BBX 6 6 0 0
BITMAP
78
84
FC
80
80
7C
ENDCHAR
STARTCHAR f
ENCODING 102
SWIDTH 667 0
DWIDTH 7 0
BBX 4 9 1 0
BITMAP
30
40
40
E0
40
40
40
40
40
ENDCHAR
STARTCHAR g
ENCODING 103
SWIDTH 667 0
DWIDTH 7 0
BBX 6 9 0 -3
BITMAP
7C
84
84
84
84
7C
04
04
78
ENDCHAR
STARTCHAR h
ENCODING 104
SWIDTH 667 0
DWIDTH 7 0
BBX 6 9 0 0
BITMAP
80
80
80
F8
84
84
84
84
84
ENDCHAR
STARTCHAR i
ENCODING 105
SWIDTH 667 0
DWIDTH 7 0
BBX 3 9 2 0
BITMAP
40
00
00
C0
40
40
40
40
E0
ENDCHAR
STARTCHAR j
ENCODING 106
SWIDTH 667 0
DWIDTH 7 0
BBX 3 12 1 -3
BITMAP
20
00
00
60
20
20
20
20
20
20
20
C0
ENDCHAR
STARTCHAR k
ENCODING 107
SWIDTH 667 0
DWIDTH 7 0
BBX 6 9 0 0
BITMAP
80
80
80
88
90
A0
D0
88
84
ENDCHAR
STARTCHAR l
ENCODING 108
SWIDTH 667 0
DWIDTH 7 0
BBX 3 9 2 0
BITMAP
C0
40
40
40
40
40
40
40
E0
ENDCHAR
STARTCHAR m
ENCODING 109
SWIDTH 667 0
DWIDTH 7 0
BBX 7 6 0 0
BITMAP
FC
92
92
92
92
92
ENDCHAR
STARTCHAR n
ENCODING 110
SWIDTH 667 0
DWIDTH 7 0
BBX 6 6 0 0
BITMAP
98
A4
C4
84
84
84
ENDCHAR
STARTCHAR o
ENCODING 111
SWIDTH 667 0
DWIDTH 7 0
BBX 6 6 0 0
BITMAP
78
84
84
84
84
78
ENDCHAR
STARTCHAR p
ENCODING 112
SWIDTH 667 0
DWIDTH 7 0
BBX 6 9 0 -3
BITMAP
F8
84
84
84
84
F8
80
80
80
ENDCHAR
STARTCHAR q
ENCODING 113
SWIDTH 667 0
DWIDTH 7 0
BBX 6 9 0 -3
BITMAP
7C
84
84
84
84
7C
04
04
04
ENDCHAR
STARTCHAR r
ENCODING 114
SWIDTH 667 0
DWIDTH 7 0
BBX 6 6 0 0
BITMAP
98
A4
C0
80
80
80
ENDCHAR
STARTCHAR s
ENCODING 115
SWIDTH 667 0
DWIDTH 7 0
BBX 6 6 0 0
BITMAP
7C
80
78
04
04
F8
ENDCHAR
STARTCHAR t
ENCODING 116
SWIDTH 667 0
DWIDTH 7 0
BBX 4 9 1 0
BITMAP
40
40
40
E0
40
40
40
40
30
ENDCHAR
STARTCHAR u
ENCODING 117
SWIDTH 667 0
DWIDTH 7 0
BBX 6 6 0 0
BITMAP
84
84
84
8C
94
64
ENDCHAR
STARTCHAR v
ENCODING 118
SWIDTH 667 0
DWIDTH 7 0
BBX 6 6 0 0
BITMAP
84
84
48
48
30
30
ENDCHAR
STARTCHAR w
ENCODING 119
SWIDTH 667 0
DWIDTH 7 0
BBX 7 6 0 0
BITMAP
92
92
92
92
92
6C
ENDCHAR
STARTCHAR x
ENCODING 120
SWIDTH 667 0
DWIDTH 7 0
BBX 6 6 0 0
BITMAP
84
48
30
30
48
84
ENDCHAR
STARTCHAR y
ENCODING 121
SWIDTH 667 0
DWIDTH 7 0
BBX 6 9 0 -3
BITMAP
84
84
84
84
84
7C
04
04
78
ENDCHAR
STARTCHAR z
ENCODING 122
SWIDTH 667 0
DWIDTH 7 0
BBX 6 6 0 0
BITMAP
FC
08
10
20
40
FC
ENDCHAR
STARTCHAR braceleft
ENCODING 123
SWIDTH 667 0
DWIDTH 7 0
BBX 4 15 1 -3
BITMAP
30
40
40
40
40
40
40
80
40
40
40
40
40
40
30
ENDCHAR
STARTCHAR bar
ENCODING 124
SWIDTH 667 0
DWIDTH 7 0
BBX 1 13 3 -2
BITMAP
80
80
80
80
80
80
80
80
80
80
80
80
80
ENDCHAR
STARTCHAR braceright
ENCODING 125
SWIDTH 667 0
DWIDTH 7 0
BBX 4 15 1 -3
BITMAP
C0
20
20
20
20
20
20
10
20
20
20
20
20
20
C0
ENDCHAR
STARTCHAR asciitilde
ENCODING 126
SWIDTH 667 0
DWIDTH 7 0
BBX 6 2 0 4
BITMAP
64
98
ENDCHAR
STARTCHAR char007f
ENCODING 127
SWIDTH 0 0
DWIDTH 0 0
BBX 0 0 0 -3
BITMAP
ENDCHAR
STARTCHAR Adieresis
ENCODING 128
SWIDTH 667 0
DWIDTH 7 0
BBX 6 12 0 0
BITMAP
48
00
00
30
30
48
48
84
FC
84
84
84
ENDCHAR
STARTCHAR Aring
ENCODING 129
SWIDTH 667 0
DWIDTH 7 0
BBX 6 12 0 0
BITMAP
30
48
48
30
30
48
48
84
FC
84
84
84
ENDCHAR
STARTCHAR Ccedilla
ENCODING 130
SWIDTH 667 0
DWIDTH 7 0
BBX 6 11 0 -2
BITMAP
78
84
80
80
80
80
80
84
78
10
20
ENDCHAR
STARTCHAR Eacute
ENCODING 131
SWIDTH 667 0
DWIDTH 7 0
BBX 6 12 0 0
BITMAP
08
10
20
FC
80
80
80
F8
80
80
80
FC
ENDCHAR
STARTCHAR Ntilde
ENCODING 132
SWIDTH 667 0
DWIDTH 7 0
BBX 6 12 0 0
BITMAP
64
98
00
84
C4
A4
94
8C
84
84
84
84
ENDCHAR
STARTCHAR Odieresis
ENCODING 133
SWIDTH 667 0
DWIDTH 7 0
BBX 6 12 0 0
BITMAP
48
00
00
78
84
84
84
84
84
84
84
78
ENDCHAR
STARTCHAR Udieresis
ENCODING 134
SWIDTH 667 0
DWIDTH 7 0
BBX 6 12 0 0
BITMAP
48
00
00
84
84
84
84
84
84
84
84
78
ENDCHAR
STARTCHAR aacute
ENCODING 135
SWIDTH 667 0
DWIDTH 7 0
BBX 6 11 0 0
BITMAP
04
08
10
00
00
7C
84
84
8C
94
64
ENDCHAR
STARTCHAR agrave
ENCODING 136
SWIDTH 667 0
DWIDTH 7 0
BBX 6 11 0 0
BITMAP
40
20
10
00
00
7C
84
84
8C
94
64
ENDCHAR
STARTCHAR acircumflex
ENCODING 137
SWIDTH 667 0
DWIDTH 7 0
BBX 6 11 0 0
BITMAP
10
28
44
00
00
7C
84
84
8C
94
64
ENDCHAR
STARTCHAR adieresis
ENCODING 138
SWIDTH 667 0
DWIDTH 7 0
BBX 6 9 0 0
BITMAP
48
00
00
7C
84
84
8C
94
64
ENDCHAR
STARTCHAR atilde
ENCODING 139
SWIDTH 667 0
DWIDTH 7 0
BBX 6 10 0 0
BITMAP
64
98
00
00
7C
84
84
8C
94
64
ENDCHAR
STARTCHAR aring
ENCODING 140
SWIDTH 667 0
DWIDTH 7 0
BBX 6 10 0 0
BITMAP
30
48
48
30
7C
84
84
8C
94
64
ENDCHAR
STARTCHAR ccedilla
ENCODING 141
SWIDTH 667 0
DWIDTH 7 0
BBX 6 8 0 -2
BITMAP
78
84
80
80
80
7C
10
20
ENDCHAR
STARTCHAR eacute
ENCODING 142
SWIDTH 667 0
DWIDTH 7 0
BBX 6 11 0 0
BITMAP
04
08
10
00
00
78
84
FC
80
80
7C
ENDCHAR
STARTCHAR egrave
ENCODING 143
SWIDTH 667 0
DWIDTH 7 0
BBX 6 11 0 0
BITMAP
40
20
10
00
00
78
84
FC
80
80
7C
ENDCHAR
STARTCHAR ecircumflex
ENCODING 144
SWIDTH 667 0
DWIDTH 7 0
BBX 6 11 0 0
BITMAP
10
28
44
00
00
78
84
FC
80
80
7C
ENDCHAR
STARTCHAR edieresis
ENCODING 145
SWIDTH 667 0
DWIDTH 7 0
BBX 6 9 0 0
BITMAP
48
00
00
78
84
FC
80
80
7C
ENDCHAR
STARTCHAR iacute
ENCODING 146
SWIDTH 667 0
DWIDTH 7 0
BBX 4 11 2 0
BITMAP
10
20
40
00
00
C0
40
40
40
40
E0
ENDCHAR
STARTCHAR igrave
ENCODING 147
SWIDTH 667 0
DWIDTH 7 0
BBX 4 11 1 0
BITMAP
80
40
20
00
00
60
20
20
20
20
70
ENDCHAR
STARTCHAR icircumflex
ENCODING 148
SWIDTH 667 0
DWIDTH 7 0
BBX 5 11 1 0
BITMAP
20
50
88
00
00
60
20
20
20
20
70
ENDCHAR
STARTCHAR idieresis
ENCODING 149
SWIDTH 667 0
DWIDTH 7 0
BBX 4 9 1 0
BITMAP
90
00
00
60
20
20
20
20
70
ENDCHAR
STARTCHAR ntilde
ENCODING 150
SWIDTH 667 0
DWIDTH 7 0
BBX 6 10 0 0
BITMAP
64
98
00
00
98
A4
C4
84
84
84
ENDCHAR
STARTCHAR oacute
ENCODING 151
SWIDTH 667 0
DWIDTH 7 0
BBX 6 11 0 0
BITMAP
04
08
10
00
00
78
84
84
84
84
78
ENDCHAR
STARTCHAR ograve
ENCODING 152
SWIDTH 667 0
DWIDTH 7 0
BBX 6 11 0 0
BITMAP
40
20
10
00
00
78
84
84
84
84
78
ENDCHAR
STARTCHAR ocircumflex
ENCODING 153
SWIDTH 667 0
DWIDTH 7 0
BBX 6 11 0 0
BITMAP
10
28
44
00
00
78
84
84
84
84
78
ENDCHAR
STARTCHAR odieresis
ENCODING 154
SWIDTH 667 0
DWIDTH 7 0
BBX 6 9 0 0
BITMAP
48
00
00
78
84
84
84
84
78
ENDCHAR
STARTCHAR otilde
ENCODING 155
SWIDTH 667 0
DWIDTH 7 0
BBX 6 10 0 0
BITMAP
64
98
00
00
78
84
84
84
84
78
ENDCHAR
STARTCHAR uacute
ENCODING 156
SWIDTH 667 0
DWIDTH 7 0
BBX 6 11 0 0
BITMAP
04
08
10
00
00
84
84
84
8C
94
64
ENDCHAR
STARTCHAR ugrave
ENCODING 157
SWIDTH 667 0
DWIDTH 7 0
BBX 6 11 0 0
BITMAP
40
20
10
00
00
84
84
84
8C
94
64
ENDCHAR
STARTCHAR ucircumflex
ENCODING 158
SWIDTH 667 0
DWIDTH 7 0
BBX 6 11 0 0
BITMAP
10
28
44
00
00
84
84
84
8C
94
64
ENDCHAR
STARTCHAR udieresis
ENCODING 159
SWIDTH 667 0
DWIDTH 7 0
BBX 6 9 0 0
BITMAP
48
00
00
84
84
84
8C
94
64
ENDCHAR
STARTCHAR dagger
ENCODING 160
SWIDTH 667 0
DWIDTH 7 0
BBX 3 6 2 3
BITMAP
40
E0
40
40
40
40
ENDCHAR
STARTCHAR degree
ENCODING 161
SWIDTH 667 0
DWIDTH 7 0
BBX 5 5 1 6
BITMAP
70
88
88
88
70
ENDCHAR
STARTCHAR cent
ENCODING 162
SWIDTH 667 0
DWIDTH 7 0
BBX 5 10 0 -2
BITMAP
20
20
70
A8
A0
A0
A0
78
20
20
ENDCHAR
STARTCHAR sterling
ENCODING 163
SWIDTH 667 0
DWIDTH 7 0
BBX 6 11 0 0
BITMAP
60
90
80
80
F0
80
80
80
84
88
F0
ENDCHAR
STARTCHAR section
ENCODING 164
SWIDTH 667 0
DWIDTH 7 0
BBX 6 13 0 -1
BITMAP
78
84
84
44
A0
90
48
24
14
88
84
84
78
ENDCHAR
STARTCHAR bullet
ENCODING 165
SWIDTH 667 0
DWIDTH 7 0
BBX 6 6 0 2
BITMAP
30
78
FC
FC
78
30
ENDCHAR
STARTCHAR paragraph
ENCODING 166
SWIDTH 667 0
DWIDTH 7 0
BBX 6 10 0 0
BITMAP
3C
54
94
94
54
3C
14
14
14
14
ENDCHAR
STARTCHAR germandbls
ENCODING 167
SWIDTH 667 0
DWIDTH 7 0
BBX 6 12 0 -2
BITMAP
38
44
84
88
90
90
88
84
84
B8
80
80
ENDCHAR
STARTCHAR registered
ENCODING 168
SWIDTH 667 0
DWIDTH 7 0
BBX 6 8 0 1
BITMAP
F0
08
64
94
94
E4
94
88
ENDCHAR
STARTCHAR copyright
ENCODING 169
SWIDTH 667 0
DWIDTH 7 0
BBX 6 9 0 0
BITMAP
F0
08
74
84
84
84
74
08
F0
ENDCHAR
STARTCHAR trademark
ENCODING 170
SWIDTH 667 0
DWIDTH 7 0
BBX 7 4 0 5
BITMAP
F2
5E
52
52
ENDCHAR
STARTCHAR acute
ENCODING 171
SWIDTH 667 0
DWIDTH 7 0
BBX 3 3 2 7
BITMAP
20
40
80
ENDCHAR
STARTCHAR dieresis
ENCODING 172
SWIDTH 667 0
DWIDTH 7 0
BBX 4 1 1 8
BITMAP
90
ENDCHAR
STARTCHAR notequal
ENCODING 173
SWIDTH 667 0
DWIDTH 7 0
BBX 6 8 0 1
BITMAP
04
08
FC
10
20
FC
20
40
ENDCHAR
STARTCHAR AE
ENCODING 174
SWIDTH 667 0
DWIDTH 7 0
BBX 6 9 0 0
BITMAP
7C
90
90
90
F8
90
90
90
9C
ENDCHAR
STARTCHAR Oslash
ENCODING 175
SWIDTH 667 0
DWIDTH 7 0
BBX 6 9 0 0
BITMAP
78
84
8C
94
A4
C4
84
84
78
ENDCHAR
STARTCHAR infinity
ENCODING 176
SWIDTH 667 0
DWIDTH 7 0
BBX 6 4 0 3
BITMAP
48
B4
B4
48
ENDCHAR
STARTCHAR plusminus
ENCODING 177
SWIDTH 667 0
DWIDTH 7 0
BBX 5 6 0 1
BITMAP
20
20
F8
20
20
F8
ENDCHAR
STARTCHAR lessequal
ENCODING 178
SWIDTH 667 0
DWIDTH 7 0
BBX 4 9 1 0
BITMAP
10
20
40
80
40
20
10
00
F0
ENDCHAR
STARTCHAR greaterequal
ENCODING 179
SWIDTH 667 0
DWIDTH 7 0
BBX 4 9 2 0
BITMAP
80
40
20
10
20
40
80
00
F0
ENDCHAR
STARTCHAR yen
ENCODING 180
SWIDTH 667 0
DWIDTH 7 0
BBX 7 10 0 0
BITMAP
82
44
28
FE
10
10
FE
10
10
10
ENDCHAR
STARTCHAR mu
ENCODING 181
SWIDTH 667 0
DWIDTH 7 0
BBX 6 9 0 -3
BITMAP
88
88
88
88
88
F4
80
80
80
ENDCHAR
STARTCHAR partialdiff
ENCODING 182
SWIDTH 667 0
DWIDTH 7 0
BBX 5 10 1 0
BITMAP
40
20
10
18
28
48
88
88
88
70
ENDCHAR
STARTCHAR summation
ENCODING 183
SWIDTH 667 0
DWIDTH 7 0
BBX 6 9 0 0
BITMAP
FC
44
20
10
08
10
20
44
FC
ENDCHAR
STARTCHAR product
ENCODING 184
SWIDTH 667 0
DWIDTH 7 0
BBX 6 9 0 0
BITMAP
FC
48
48
48
48
48
48
48
48
ENDCHAR
STARTCHAR pi
ENCODING 185
SWIDTH 667 0
DWIDTH 7 0
BBX 6 6 0 0
BITMAP
FC
48
48
48
48
48
ENDCHAR
STARTCHAR integral
ENCODING 186
SWIDTH 667 0
DWIDTH 7 0
BBX 7 15 0 -3
BITMAP
06
08
10
10
10
10
10
10
10
10
10
10
10
20
C0
ENDCHAR
STARTCHAR ordfeminine
ENCODING 187
SWIDTH 667 0
DWIDTH 7 0
BBX 5 8 1 4
BITMAP
78
88
88
88
78
00
00
F8
ENDCHAR
STARTCHAR ordmasculine
ENCODING 188
SWIDTH 667 0
DWIDTH 7 0
BBX 5 8 1 4
BITMAP
70
88
88
88
70
00
00
F8
ENDCHAR
STARTCHAR Omega
ENCODING 189
SWIDTH 667 0
DWIDTH 7 0
BBX 6 9 0 0
BITMAP
78
84
84
84
84
84
48
48
84
ENDCHAR
STARTCHAR ae
ENCODING 190
SWIDTH 667 0
DWIDTH 7 0
BBX 6 6 0 0
BITMAP
78
A4
BC
A0
A0
7C
ENDCHAR
STARTCHAR oslash
ENCODING 191
SWIDTH 667 0
DWIDTH 7 0
BBX 6 6 0 0
BITMAP
78
8C
94
A4
C4
78
ENDCHAR
STARTCHAR questiondown
ENCODING 192
SWIDTH 667 0
DWIDTH 7 0
BBX 6 9 0 0
BITMAP
10
00
10
20
40
80
80
84
78
ENDCHAR
STARTCHAR exclamdown
ENCODING 193
SWIDTH 667 0
DWIDTH 7 0
BBX 1 9 4 0
BITMAP
80
00
80
80
80
80
80
80
80
ENDCHAR
STARTCHAR logicalnot
ENCODING 194
SWIDTH 667 0
DWIDTH 7 0
BBX 6 4 0 1
BITMAP
FC
04
04
04
ENDCHAR
STARTCHAR radical
ENCODING 195
SWIDTH 667 0
DWIDTH 7 0
BBX 6 8 0 0
BITMAP
0C
08
10
10
A0
A0
40
40
ENDCHAR
STARTCHAR florin
ENCODING 196
SWIDTH 667 0
DWIDTH 7 0
BBX 7 14 0 -2
BITMAP
06
08
10
10
10
38
10
10
10
10
10
10
20
C0
ENDCHAR
STARTCHAR approxequal
ENCODING 197
SWIDTH 667 0
DWIDTH 7 0
BBX 6 6 0 2
BITMAP
04
78
80
04
78
80
ENDCHAR
STARTCHAR Delta
ENCODING 198
SWIDTH 667 0
DWIDTH 7 0
BBX 7 8 0 0
BITMAP
10
10
28
28
44
44
82
FE
ENDCHAR
STARTCHAR guillemotleft
ENCODING 199
SWIDTH 667 0
DWIDTH 7 0
BBX 5 5 0 0
BITMAP
48
90
90
90
48
ENDCHAR
STARTCHAR guillemotright
ENCODING 200
SWIDTH 667 0
DWIDTH 7 0
BBX 5 5 0 0
BITMAP
90
48
48
48
90
ENDCHAR
STARTCHAR ellipsis
ENCODING 201
SWIDTH 667 0
DWIDTH 7 0
BBX 7 1 0 0
BITMAP
92
ENDCHAR
STARTCHAR nbspace
ENCODING 202
SWIDTH 667 0
DWIDTH 7 0
BBX 0 0 0 -3
BITMAP
ENDCHAR
STARTCHAR Agrave
ENCODING 203
SWIDTH 667 0
DWIDTH 7 0
BBX 6 12 0 0
BITMAP
40
20
10
30
30
48
48
84
FC
84
84
84
ENDCHAR
STARTCHAR Atilde
ENCODING 204
SWIDTH 667 0
DWIDTH 7 0
BBX 6 12 0 0
BITMAP
64
98
00
30
30
48
48
84
FC
84
84
84
ENDCHAR
STARTCHAR Otilde
ENCODING 205
SWIDTH 667 0
DWIDTH 7 0
BBX 6 12 0 0
BITMAP
64
98
00
78
84
84
84
84
84
84
84
78
ENDCHAR
STARTCHAR OE
ENCODING 206
SWIDTH 667 0
DWIDTH 7 0
BBX 6 9 0 0
BITMAP
7C
90
90
90
98
90
90
90
7C
ENDCHAR
STARTCHAR oe
ENCODING 207
SWIDTH 667 0
DWIDTH 7 0
BBX 6 6 0 0
BITMAP
68
94
9C
90
90
6C
ENDCHAR
STARTCHAR endash
ENCODING 208
SWIDTH 667 0
DWIDTH 7 0
BBX 4 1 1 3
BITMAP
F0
ENDCHAR
STARTCHAR emdash
ENCODING 209
SWIDTH 667 0
DWIDTH 7 0
BBX 7 1 0 3
BITMAP
FE
ENDCHAR
STARTCHAR quotedblleft
ENCODING 210
SWIDTH 667 0
DWIDTH 7 0
BBX 5 4 1 5
BITMAP
48
90
90
90
ENDCHAR
STARTCHAR quotedblright
ENCODING 211
SWIDTH 667 0
DWIDTH 7 0
BBX 5 4 1 5
BITMAP
48
48
48
90
ENDCHAR
STARTCHAR quoteleft
ENCODING 212
SWIDTH 667 0
DWIDTH 7 0
BBX 2 4 3 5
BITMAP
40
80
80
80
ENDCHAR
STARTCHAR quoteright
ENCODING 213
SWIDTH 667 0
DWIDTH 7 0
BBX 2 4 3 5
BITMAP
40
40
40
80
ENDCHAR
STARTCHAR divide
ENCODING 214
SWIDTH 667 0
DWIDTH 7 0
BBX 5 5 0 1
BITMAP
20
00
F8
00
20
ENDCHAR
STARTCHAR lozenge
ENCODING 215
SWIDTH 667 0
DWIDTH 7 0
BBX 7 7 0 1
BITMAP
10
28
44
82
44
28
10
ENDCHAR
STARTCHAR ydieresis
ENCODING 216
SWIDTH 667 0
DWIDTH 7 0
BBX 6 12 0 -3
BITMAP
48
00
00
84
84
84
84
84
7C
04
04
78
ENDCHAR
STARTCHAR Ydieresis
ENCODING 217
SWIDTH 667 0
DWIDTH 7 0
BBX 7 12 0 0
BITMAP
44
00
00
82
82
82
44
28
10
10
10
10
ENDCHAR
STARTCHAR fraction
ENCODING 218
SWIDTH 667 0
DWIDTH 7 0
BBX 5 5 0 1
BITMAP
08
10
20
40
80
ENDCHAR
STARTCHAR currency
ENCODING 219
SWIDTH 667 0
DWIDTH 7 0
BBX 7 7 0 0
BITMAP
82
44
38
28
38
44
82
ENDCHAR
STARTCHAR guilsinglleft
ENCODING 220
SWIDTH 667 0
DWIDTH 7 0
BBX 2 5 0 0
BITMAP
40
80
80
80
40
ENDCHAR
STARTCHAR guilsinglright
ENCODING 221
SWIDTH 667 0
DWIDTH 7 0
BBX 2 5 0 0
BITMAP
80
40
40
40
80
ENDCHAR
STARTCHAR fi
ENCODING 222
SWIDTH 667 0
DWIDTH 7 0
BBX 6 9 0 0
BITMAP
30
40
40
F8
48
48
48
48
5C
ENDCHAR
STARTCHAR fl
ENCODING 223
SWIDTH 667 0
DWIDTH 7 0
BBX 6 9 0 0
BITMAP
38
48
48
E8
48
48
48
48
5C
ENDCHAR
STARTCHAR daggerdbl
ENCODING 224
SWIDTH 667 0
DWIDTH 7 0
BBX 3 6 2 3
BITMAP
40
E0
40
40
E0
40
ENDCHAR
STARTCHAR periodcentered
ENCODING 225
SWIDTH 667 0
DWIDTH 7 0
BBX 2 2 3 3
BITMAP
C0
C0
ENDCHAR
STARTCHAR quotesinglbase
ENCODING 226
SWIDTH 667 0
DWIDTH 7 0
BBX 2 4 0 -1
BITMAP
40
40
40
80
ENDCHAR
STARTCHAR quotedblbase
ENCODING 227
SWIDTH 667 0
DWIDTH 7 0
BBX 5 4 0 -1
BITMAP
48
48
48
90
ENDCHAR
STARTCHAR perthousand
ENCODING 228
SWIDTH 667 0
DWIDTH 7 0
BBX 7 10 0 0
BITMAP
7E
A4
A8
B0
60
54
AA
2A
2A
14
ENDCHAR
STARTCHAR Acircumflex
ENCODING 229
SWIDTH 667 0
DWIDTH 7 0
BBX 6 12 0 0
BITMAP
10
28
44
30
30
48
48
84
FC
84
84
84
ENDCHAR
STARTCHAR Ecircumflex
ENCODING 230
SWIDTH 667 0
DWIDTH 7 0
BBX 6 12 0 0
BITMAP
10
28
44
FC
80
80
80
F8
80
80
80
FC
ENDCHAR
STARTCHAR Aacute
ENCODING 231
SWIDTH 667 0
DWIDTH 7 0
BBX 6 12 0 0
BITMAP
08
10
20
30
30
48
48
84
FC
84
84
84
ENDCHAR
STARTCHAR Edieresis
ENCODING 232
SWIDTH 667 0
DWIDTH 7 0
BBX 6 12 0 0
BITMAP
48
00
00
FC
80
80
80
F8
80
80
80
FC
ENDCHAR
STARTCHAR Egrave
ENCODING 233
SWIDTH 667 0
DWIDTH 7 0
BBX 6 12 0 0
BITMAP
40
20
10
FC
80
80
80
F8
80
80
80
FC
ENDCHAR
STARTCHAR Iacute
ENCODING 234
SWIDTH 667 0
DWIDTH 7 0
BBX 7 12 0 0
BITMAP
04
08
10
FE
10
10
10
10
10
10
10
FE
ENDCHAR
STARTCHAR Icircumflex
ENCODING 235
SWIDTH 667 0
DWIDTH 7 0
BBX 7 12 0 0
BITMAP
10
28
44
FE
10
10
10
10
10
10
10
FE
ENDCHAR
STARTCHAR Idieresis
ENCODING 236
SWIDTH 667 0
DWIDTH 7 0
BBX 7 12 0 0
BITMAP
48
00
00
FE
10
10
10
10
10
10
10
FE
ENDCHAR
STARTCHAR Igrave
ENCODING 237
SWIDTH 667 0
DWIDTH 7 0
BBX 7 12 0 0
BITMAP
40
20
10
FE
10
10
10
10
10
10
10
FE
ENDCHAR
STARTCHAR Oacute
ENCODING 238
SWIDTH 667 0
DWIDTH 7 0
BBX 6 12 0 0
BITMAP
08
10
20
78
84
84
84
84
84
84
84
78
ENDCHAR
STARTCHAR Ocircumflex
ENCODING 239
SWIDTH 667 0
DWIDTH 7 0
BBX 6 12 0 0
BITMAP
10
28
44
78
84
84
84
84
84
84
84
78
ENDCHAR
STARTCHAR apple
ENCODING 240
SWIDTH 667 0
DWIDTH 7 0
BBX 7 11 0 0
BITMAP
08
10
64
7E
FE
FC
FC
FE
7E
7E
34
ENDCHAR
STARTCHAR Ograve
ENCODING 241
SWIDTH 667 0
DWIDTH 7 0
BBX 6 12 0 0
BITMAP
40
20
10
78
84
84
84
84
84
84
84
78
ENDCHAR
STARTCHAR Uacute
ENCODING 242
SWIDTH 667 0
DWIDTH 7 0
BBX 6 12 0 0
BITMAP
08
10
20
84
84
84
84
84
84
84
84
78
ENDCHAR
STARTCHAR Ucircumflex
ENCODING 243
SWIDTH 667 0
DWIDTH 7 0
BBX 6 12 0 0
BITMAP
10
28
44
00
84
84
84
84
84
84
84
78
ENDCHAR
STARTCHAR Ugrave
ENCODING 244
SWIDTH 667 0
DWIDTH 7 0
BBX 6 12 0 0
BITMAP
40
20
10
84
84
84
84
84
84
84
84
78
ENDCHAR
STARTCHAR dotlessi
ENCODING 245
SWIDTH 667 0
DWIDTH 7 0
BBX 3 6 2 0
BITMAP
C0
40
40
40
40
E0
ENDCHAR
STARTCHAR circumflex
ENCODING 246
SWIDTH 667 0
DWIDTH 7 0
BBX 5 3 1 8
BITMAP
20
50
88
ENDCHAR
STARTCHAR tilde
ENCODING 247
SWIDTH 667 0
DWIDTH 7 0
BBX 6 2 0 8
BITMAP
64
98
ENDCHAR
STARTCHAR macron
ENCODING 248
SWIDTH 667 0
DWIDTH 7 0
BBX 4 1 1 8
BITMAP
F0
ENDCHAR
STARTCHAR breve
ENCODING 249
SWIDTH 667 0
DWIDTH 7 0
BBX 5 2 1 8
BITMAP
88
70
ENDCHAR
STARTCHAR dotaccent
ENCODING 250
SWIDTH 667 0
DWIDTH 7 0
BBX 2 2 3 7
BITMAP
C0
C0
ENDCHAR
STARTCHAR ring
ENCODING 251
SWIDTH 667 0
DWIDTH 7 0
BBX 4 4 1 7
BITMAP
60
90
90
60
ENDCHAR
STARTCHAR cedilla
ENCODING 252
SWIDTH 667 0
DWIDTH 7 0
BBX 2 3 2 -2
BITMAP
C0
40
80
ENDCHAR
STARTCHAR hungarumlaut
ENCODING 253
SWIDTH 667 0
DWIDTH 7 0
BBX 6 3 0 8
BITMAP
24
48
90
ENDCHAR
STARTCHAR ogonek
ENCODING 254
SWIDTH 667 0
DWIDTH 7 0
BBX 2 3 2 -2
BITMAP
C0
80
40
ENDCHAR
STARTCHAR caron
ENCODING 255
SWIDTH 667 0
DWIDTH 7 0
BBX 5 3 1 8
BITMAP
88
50
20
ENDCHAR
ENDFONT
